<svg height="512" viewBox="0 0 128 128" width="512" xmlns="http://www.w3.org/2000/svg"><g id="Flat"><g id="Color"><rect fill="#37474f" height="125" rx="15" width="109" x="9.5" y="1.5"/><rect fill="#ffb300" height="62" rx="6" width="35" x="69.5" y="51.5"/><rect fill="#03a9f4" height="24" rx="6" width="81" x="23.5" y="14.5"/><rect fill="#8bc34a" height="27" rx="6" width="36" x="23.5" y="51.5"/><g fill="#fff"><circle cx="94.5" cy="26.5" r="3"/><circle cx="79.5" cy="26.5" r="3"/><circle cx="64.5" cy="26.5" r="3"/><rect height="6" rx="1.403" width="14" x="80" y="73.5"/><rect height="6" rx="1.403" width="14" x="80" y="85.5"/><path d="m48 62h-3.5v-3.5a1.5 1.5 0 0 0 -1.5-1.5h-3a1.5 1.5 0 0 0 -1.5 1.5v3.5h-3.5a1.5 1.5 0 0 0 -1.5 1.5v3a1.5 1.5 0 0 0 1.5 1.5h3.5v3.5a1.5 1.5 0 0 0 1.5 1.5h3a1.5 1.5 0 0 0 1.5-1.5v-3.5h3.5a1.5 1.5 0 0 0 1.5-1.5v-3a1.5 1.5 0 0 0 -1.5-1.5z"/></g><rect fill="#e91e63" height="27" rx="6" width="36" x="23.5" y="86.5"/><rect fill="#fff" height="6" rx="1.5" width="16" x="33.5" y="97"/></g></g></svg>